<svg width="246" height="172" viewBox="0 0 246 172" fill="none" xmlns="http://www.w3.org/2000/svg">
<path d="M229.513 57.5572C233.588 72.7624 225.725 89.8657 209.192 105.279C192.694 120.659 167.754 134.152 138.273 142.051C108.792 149.951 80.4467 150.736 58.4697 145.665C36.4444 140.583 21.0839 129.703 17.0097 114.497C12.9355 99.2923 20.7977 82.189 37.3313 66.7754C53.8286 51.3957 78.7686 37.9031 108.25 30.0036C137.731 22.1041 166.076 21.319 188.053 26.3895C210.079 31.4713 225.439 42.3521 229.513 57.5572Z" fill="#EBE3FF" fill-opacity="0.19" stroke="#D9FF5A" stroke-width="2"/>
<path d="M74.2955 123.539L75.5161 128.095L73.3775 128.668L70.1164 116.497C70.7191 116.336 71.3725 116.154 72.0764 115.953C72.7804 115.752 73.3584 115.591 73.8104 115.47C76.7546 114.681 78.5621 115.539 79.2329 118.042C79.4814 118.97 79.4488 119.798 79.135 120.528C78.8151 121.235 78.3759 121.775 77.8175 122.148L82.9576 126.101L80.3669 126.795L75.7907 123.139L74.2955 123.539ZM74.2419 117.497C74.1839 117.513 74.0927 117.544 73.9683 117.589C73.8408 117.624 73.6627 117.677 73.434 117.751C73.2022 117.813 72.9877 117.871 72.7907 117.924L73.7597 121.54L75.1507 121.167C75.8345 120.984 76.3459 120.667 76.6847 120.216C77.0351 119.762 77.1326 119.245 76.9773 118.665C76.6605 117.483 75.7487 117.094 74.2419 117.497ZM89.0851 122.111L90.0362 123.366C89.4335 124.223 88.5236 124.814 87.3066 125.14C86.0547 125.476 84.9338 125.373 83.9437 124.83C82.9799 124.293 82.3319 123.405 81.9995 122.165C81.689 121.006 81.8048 119.931 82.347 118.941C82.8892 117.951 83.7863 117.288 85.0381 116.953C86.0697 116.676 87.0365 116.784 87.9383 117.275C88.8402 117.766 89.4325 118.539 89.7151 119.594C89.8394 120.058 89.8951 120.428 89.8823 120.705L84.2316 122.219C84.4649 122.765 84.8337 123.144 85.338 123.357C85.8538 123.567 86.4305 123.586 87.068 123.415C87.9373 123.183 88.6097 122.748 89.0851 122.111ZM85.3984 118.645C84.2625 118.949 83.7308 119.701 83.8033 120.899L87.6458 119.869C87.5238 119.368 87.2528 119.005 86.8328 118.782C86.4213 118.545 85.9432 118.499 85.3984 118.645ZM100.891 125.022L98.892 125.558L97.8531 121.681C97.3559 122.237 96.7654 122.606 96.0815 122.789C94.8413 123.122 93.7509 123.016 92.8103 122.473C91.8781 121.915 91.2459 121.016 90.9136 119.776C90.5999 118.605 90.7621 117.518 91.4002 116.515C92.0467 115.497 93.0133 114.816 94.2999 114.471C95.6445 114.111 96.899 114.11 98.0636 114.469L100.891 125.022ZM95.8439 120.859C96.5161 120.679 97.0088 120.292 97.322 119.699L96.4182 116.326C95.8282 116.211 95.2841 116.22 94.7856 116.353C94.067 116.546 93.558 116.918 93.2588 117.471C92.9564 118.011 92.8953 118.618 93.0754 119.29C93.2432 119.916 93.5784 120.379 94.0812 120.679C94.5956 120.976 95.1832 121.036 95.8439 120.859ZM105.141 111.771L107.141 111.235L109.237 119.059L107.238 119.595L106.981 118.639C106.56 119.571 105.828 120.178 104.785 120.457C103.951 120.681 103.21 120.581 102.562 120.158C101.915 119.735 101.451 119.002 101.172 117.959L99.8904 113.178L101.89 112.642L103.059 117.006C103.379 118.2 104.038 118.664 105.034 118.396C105.718 118.213 106.218 117.738 106.534 116.97L105.141 111.771ZM117.016 114.627L117.967 115.882C117.364 116.739 116.454 117.33 115.237 117.656C113.985 117.992 112.864 117.889 111.874 117.346C110.911 116.809 110.263 115.921 109.93 114.681C109.62 113.522 109.735 112.447 110.278 111.457C110.82 110.467 111.717 109.804 112.969 109.469C114 109.192 114.967 109.3 115.869 109.791C116.771 110.282 117.363 111.055 117.646 112.11C117.77 112.574 117.826 112.944 117.813 113.221L112.162 114.735C112.396 115.281 112.764 115.66 113.269 115.873C113.785 116.083 114.361 116.102 114.999 115.931C115.868 115.699 116.54 115.264 117.016 114.627ZM113.329 111.161C112.193 111.465 111.662 112.217 111.734 113.415L115.577 112.385C115.455 111.884 115.184 111.521 114.764 111.298C114.352 111.061 113.874 111.015 113.329 111.161ZM118.66 110.497C118.464 109.766 118.576 109.115 118.994 108.544C119.412 107.972 120.044 107.573 120.891 107.346C122.166 107.004 123.245 107.069 124.129 107.54L123.764 109.166C122.993 108.839 122.219 108.779 121.442 108.987C121.164 109.062 120.951 109.193 120.803 109.382C120.651 109.559 120.601 109.741 120.65 109.926C120.753 110.309 121.331 110.495 122.384 110.486C122.765 110.471 123.109 110.479 123.415 110.508C123.718 110.527 124.039 110.59 124.379 110.697C124.727 110.79 125.021 110.96 125.261 111.206C125.501 111.453 125.672 111.767 125.774 112.15C125.979 112.915 125.853 113.601 125.394 114.208C124.947 114.812 124.243 115.243 123.281 115.501C122.597 115.684 121.892 115.718 121.165 115.602C120.423 115.478 119.92 115.29 119.653 115.038L120.278 113.473C120.569 113.681 120.995 113.809 121.555 113.858C122.129 113.915 122.602 113.894 122.973 113.795C123.437 113.72 123.717 113.49 123.812 113.104C123.905 112.707 123.707 112.455 123.219 112.35C123.02 112.304 122.722 112.278 122.323 112.273C121.935 112.265 121.571 112.251 121.23 112.23C120.898 112.195 120.546 112.134 120.175 112.047C119.816 111.957 119.503 111.787 119.236 111.535C118.967 111.272 118.775 110.925 118.66 110.497ZM127.185 111.063L125.303 104.039L127.303 103.503L127.885 105.677L130.406 105.001L130.909 106.879L128.388 107.555L129.152 110.406C129.404 111.345 129.842 111.73 130.468 111.563C130.863 111.457 131.222 111.199 131.547 110.789L132.57 112.174C132.069 112.854 131.367 113.316 130.463 113.558C129.617 113.785 128.928 113.696 128.397 113.292C127.875 112.873 127.471 112.13 127.185 111.063ZM139.3 111.004L139.144 111.046L135.882 98.8752L136.074 98.8239C136.572 98.6904 137.034 98.5603 137.46 98.4338C138.311 98.1808 138.818 98.0326 138.981 97.9891C140.151 97.6754 141.226 97.5613 142.206 97.6467C143.194 97.7174 144.031 97.9653 144.716 98.3904C145.398 98.8039 145.962 99.33 146.406 99.9687C146.859 100.593 147.194 101.31 147.412 102.122C147.902 103.953 147.697 105.623 146.797 107.132C145.909 108.637 144.351 109.688 142.126 110.284C141.628 110.418 141.168 110.534 140.748 110.635C140.327 110.735 139.845 110.858 139.3 111.004ZM139.188 98.9025C138.933 98.9708 138.56 99.0834 138.067 99.2401C137.584 99.3821 137.255 99.4765 137.081 99.523L139.858 109.885C140.24 109.783 140.601 109.693 140.94 109.614C141.276 109.524 141.521 109.465 141.675 109.436C141.826 109.395 141.907 109.374 141.918 109.371C143.808 108.864 145.135 107.975 145.899 106.701C146.661 105.416 146.829 103.98 146.403 102.392C146.002 100.897 145.184 99.8117 143.947 99.1368C142.699 98.4651 141.112 98.3869 139.188 98.9025ZM157.069 104.473L157.551 105.089C157.042 106.02 156.18 106.649 154.962 106.975C153.711 107.31 152.609 107.208 151.656 106.668C150.693 106.131 150.046 105.248 149.717 104.02C149.4 102.838 149.487 101.771 149.977 100.819C150.48 99.8649 151.351 99.2215 152.591 98.8892C153.599 98.6189 154.532 98.7168 155.39 99.1826C156.233 99.64 156.798 100.402 157.084 101.468C157.158 101.746 157.206 101.995 157.227 102.212L150.777 103.941C151.063 104.87 151.569 105.53 152.294 105.919C153.017 106.297 153.847 106.361 154.786 106.109C155.876 105.817 156.637 105.272 157.069 104.473ZM152.732 99.7644C151.898 99.988 151.285 100.413 150.894 101.04C150.514 101.663 150.391 102.386 150.524 103.207L156.157 101.698C155.925 100.878 155.502 100.296 154.888 99.9508C154.274 99.606 153.555 99.5439 152.732 99.7644ZM163.941 102.203C163.844 101.843 163.616 101.594 163.256 101.454C162.907 101.312 162.501 101.234 162.038 101.222C161.587 101.206 161.126 101.18 160.657 101.144C160.185 101.097 159.753 100.946 159.361 100.69C158.978 100.42 158.717 100.024 158.577 99.5027C158.409 98.8768 158.508 98.3163 158.872 97.8211C159.233 97.3144 159.79 96.9601 160.544 96.7582C161.622 96.4693 162.517 96.5402 163.228 96.9706L163.027 97.7512C162.361 97.3957 161.61 97.3297 160.776 97.5533C160.312 97.6775 159.962 97.9017 159.726 98.2259C159.498 98.5354 159.432 98.8698 159.529 99.2291C159.628 99.6 159.855 99.8684 160.21 100.034C160.574 100.185 160.983 100.274 161.437 100.302C161.9 100.314 162.367 100.338 162.836 100.374C163.305 100.41 163.728 100.551 164.105 100.798C164.493 101.042 164.754 101.413 164.888 101.912C165.077 102.619 164.958 103.241 164.53 103.778C164.114 104.311 163.495 104.689 162.672 104.909C162.162 105.046 161.598 105.073 160.979 104.99C160.399 104.91 159.969 104.745 159.692 104.496L160.037 103.77C160.329 103.978 160.718 104.109 161.205 104.165C161.704 104.218 162.156 104.19 162.562 104.081C163.072 103.945 163.457 103.711 163.716 103.381C163.984 103.036 164.059 102.643 163.941 102.203ZM169.045 103.034L168.141 103.276L166.045 95.452L166.949 95.2097L169.045 103.034ZM165.073 92.4512C165.026 92.2774 165.053 92.1212 165.152 91.9827C165.252 91.8442 165.389 91.7517 165.562 91.7051C165.713 91.6647 165.862 91.687 166.009 91.7718C166.164 91.842 166.264 91.9582 166.307 92.1205C166.36 92.3175 166.344 92.4895 166.259 92.6365C166.186 92.7803 166.062 92.8756 165.889 92.9222C165.703 92.9718 165.531 92.9558 165.373 92.8741C165.226 92.7892 165.126 92.6483 165.073 92.4512ZM171.417 103.628C171.259 103.037 171.334 102.483 171.642 101.965C171.951 101.448 172.466 101.005 173.188 100.638C172.958 100.476 172.804 100.25 172.726 99.9602C172.649 99.6704 172.677 99.3832 172.812 99.0986C172.243 99.015 171.755 98.7918 171.347 98.429C170.939 98.0662 170.661 97.6066 170.512 97.0502C170.298 96.2504 170.405 95.5136 170.833 94.8399C171.261 94.1661 171.939 93.7049 172.866 93.4565C173.608 93.2577 174.315 93.2793 174.989 93.5212L175.006 93.5165L177.074 92.3291L177.302 93.181L175.827 94.0048C176.267 94.3962 176.559 94.8585 176.702 95.3917C176.91 96.1683 176.797 96.9066 176.363 97.6067C175.924 98.2836 175.252 98.7432 174.347 98.9854C174.023 99.0724 173.756 99.1191 173.546 99.1255C173.482 99.3042 173.482 99.5094 173.544 99.7412C173.615 100.008 173.746 100.196 173.937 100.307C174.372 100.165 174.612 100.089 174.658 100.076C175.852 99.7562 176.862 99.7218 177.687 99.9728C178.512 100.224 179.03 100.743 179.241 101.532C179.449 102.308 179.257 103.006 178.665 103.624C178.076 104.254 177.185 104.729 175.991 105.049C174.785 105.372 173.772 105.414 172.95 105.174C172.139 104.932 171.628 104.416 171.417 103.628ZM172.339 103.381C172.475 103.891 172.849 104.22 173.46 104.367C174.085 104.522 174.856 104.477 175.772 104.232C176.676 103.989 177.36 103.644 177.824 103.197C178.288 102.75 178.453 102.277 178.32 101.779C178.183 101.269 177.802 100.936 177.176 100.78C176.559 100.61 175.793 100.648 174.877 100.893C173.973 101.136 173.289 101.48 172.825 101.928C172.361 102.375 172.199 102.86 172.339 103.381ZM171.669 95.2493C171.363 95.7289 171.284 96.2469 171.433 96.8033C171.582 97.3597 171.91 97.769 172.415 98.0312C172.92 98.2934 173.491 98.3391 174.128 98.1683C174.766 97.9974 175.238 97.6722 175.544 97.1926C175.851 96.713 175.929 96.195 175.78 95.6386C175.631 95.0822 175.298 94.6745 174.781 94.4154C174.276 94.1532 173.711 94.1059 173.085 94.2737C172.471 94.4383 171.999 94.7635 171.669 95.2493ZM181.667 99.6516L180.763 99.8938L178.667 92.0698L179.571 91.8276L179.865 92.9229C180.093 92.4766 180.431 92.0693 180.879 91.7008C181.338 91.3292 181.829 91.0735 182.35 90.9338C183.44 90.6418 184.333 90.7068 185.03 91.1288C185.727 91.5508 186.236 92.3587 186.556 93.5526L187.753 98.021L186.849 98.2633L185.698 93.9688C185.195 92.091 184.086 91.3819 182.37 91.8416C181.872 91.9752 181.416 92.2215 181.003 92.5807C180.587 92.9282 180.28 93.3147 180.084 93.7401L181.667 99.6516Z" fill="white"/>
<rect x="99.0869" y="78.7764" width="30" height="30" rx="3" transform="rotate(-60 99.0869 78.7764)" fill="white"/>
<circle cx="119.577" cy="73.2861" r="13" transform="rotate(-15 119.577 73.2861)" fill="#BAA5EC"/>
<rect x="109.778" y="67.6294" width="16" height="16" rx="3" transform="rotate(-15 109.778 67.6294)" fill="white"/>
<circle cx="119.576" cy="73.2861" r="6" transform="rotate(-15 119.576 73.2861)" fill="#BAA5EC"/>
<rect width="4.24261" height="4.24261" rx="1" transform="matrix(0.5 -0.866025 0.865989 0.500063 116.679 74.0625)" fill="white"/>
</svg>
