<svg width="11" height="15" viewBox="0 0 11 15" fill="none" xmlns="http://www.w3.org/2000/svg">
<path d="M0.367656 9.42V7.74H2.10766V0.799999H6.20766C7.67432 0.799999 8.83432 1.19333 9.68766 1.98C10.5543 2.75333 10.9877 3.78667 10.9877 5.08C10.9877 6.37333 10.5543 7.42 9.68766 8.22C8.83432 9.02 7.67432 9.42 6.20766 9.42H3.82766V11.02H7.96766V12.12H3.82766V15H2.10766V12.12H0.367656V11.02H2.10766V9.42H0.367656ZM3.82766 7.74H6.16766C7.12766 7.74 7.86099 7.50667 8.36766 7.04C8.88766 6.56 9.14766 5.90667 9.14766 5.08C9.14766 4.26667 8.88766 3.63333 8.36766 3.18C7.86099 2.71333 7.12766 2.48 6.16766 2.48H3.82766V7.74Z" fill="white"/>
</svg>
